<mxfile host="app.diagrams.net" modified="2022-03-29T07:29:27.911Z" agent="5.0 (Macintosh; Intel Mac OS X 10_15_7) AppleWebKit/537.36 (KHTML, like Gecko) Chrome/96.0.4664.110 Safari/537.36" etag="IvaF8tNzDTeQtJeUu0Ab" version="17.2.4" type="github">
  <diagram id="bmjsTywZpTkW6j37SbWh" name="Page-1">
    <mxGraphModel dx="1051" dy="2935" grid="1" gridSize="10" guides="1" tooltips="1" connect="1" arrows="1" fold="1" page="1" pageScale="1" pageWidth="827" pageHeight="1169" math="0" shadow="0">
      <root>
        <mxCell id="0" />
        <mxCell id="1" parent="0" />
        <mxCell id="z4wqVW5kkElJdBJ2dBvV-2" value="&lt;font style=&quot;font-size: 30px&quot;&gt;index.ejs&lt;/font&gt;" style="rounded=1;whiteSpace=wrap;html=1;" vertex="1" parent="1">
          <mxGeometry x="190" y="-1030" width="150" height="60" as="geometry" />
        </mxCell>
        <mxCell id="z4wqVW5kkElJdBJ2dBvV-6" value="&lt;span style=&quot;font-size: 30px&quot;&gt;login.ejs&lt;/span&gt;" style="rounded=1;whiteSpace=wrap;html=1;" vertex="1" parent="1">
          <mxGeometry x="20" y="-1030" width="140" height="60" as="geometry" />
        </mxCell>
        <mxCell id="z4wqVW5kkElJdBJ2dBvV-7" value="&lt;font style=&quot;font-size: 30px&quot;&gt;nav.ejs&lt;/font&gt;" style="rounded=1;whiteSpace=wrap;html=1;" vertex="1" parent="1">
          <mxGeometry x="390" y="-1160" width="176" height="60" as="geometry" />
        </mxCell>
        <mxCell id="z4wqVW5kkElJdBJ2dBvV-8" value="&lt;font style=&quot;font-size: 30px&quot;&gt;post.ejs&lt;/font&gt;" style="rounded=1;whiteSpace=wrap;html=1;" vertex="1" parent="1">
          <mxGeometry x="360" y="-1030" width="150" height="60" as="geometry" />
        </mxCell>
        <mxCell id="z4wqVW5kkElJdBJ2dBvV-9" value="&lt;font style=&quot;font-size: 30px&quot;&gt;profile.ejs&lt;/font&gt;" style="rounded=1;whiteSpace=wrap;html=1;" vertex="1" parent="1">
          <mxGeometry x="530" y="-1030" width="150" height="60" as="geometry" />
        </mxCell>
        <mxCell id="z4wqVW5kkElJdBJ2dBvV-10" value="&lt;font style=&quot;font-size: 30px&quot;&gt;signup.ejs&lt;/font&gt;" style="rounded=1;whiteSpace=wrap;html=1;" vertex="1" parent="1">
          <mxGeometry x="720" y="-1030" width="150" height="60" as="geometry" />
        </mxCell>
        <mxCell id="z4wqVW5kkElJdBJ2dBvV-11" value="" style="endArrow=classic;html=1;rounded=0;fontSize=30;entryX=0.924;entryY=-0.066;entryDx=0;entryDy=0;entryPerimeter=0;" edge="1" parent="1" target="z4wqVW5kkElJdBJ2dBvV-6">
          <mxGeometry width="50" height="50" relative="1" as="geometry">
            <mxPoint x="390" y="-1090" as="sourcePoint" />
            <mxPoint x="350" y="-1050" as="targetPoint" />
          </mxGeometry>
        </mxCell>
        <mxCell id="z4wqVW5kkElJdBJ2dBvV-12" value="" style="endArrow=classic;html=1;rounded=0;fontSize=30;entryX=0.75;entryY=0;entryDx=0;entryDy=0;" edge="1" parent="1" target="z4wqVW5kkElJdBJ2dBvV-2">
          <mxGeometry width="50" height="50" relative="1" as="geometry">
            <mxPoint x="400" y="-1080" as="sourcePoint" />
            <mxPoint x="159.3599999999999" y="-1023.96" as="targetPoint" />
          </mxGeometry>
        </mxCell>
        <mxCell id="z4wqVW5kkElJdBJ2dBvV-13" value="" style="endArrow=classic;html=1;rounded=0;fontSize=30;" edge="1" parent="1">
          <mxGeometry width="50" height="50" relative="1" as="geometry">
            <mxPoint x="470" y="-1090" as="sourcePoint" />
            <mxPoint x="440" y="-1030" as="targetPoint" />
          </mxGeometry>
        </mxCell>
        <mxCell id="z4wqVW5kkElJdBJ2dBvV-14" value="" style="endArrow=classic;html=1;rounded=0;fontSize=30;entryX=0.4;entryY=0;entryDx=0;entryDy=0;entryPerimeter=0;" edge="1" parent="1" target="z4wqVW5kkElJdBJ2dBvV-9">
          <mxGeometry width="50" height="50" relative="1" as="geometry">
            <mxPoint x="566" y="-1090" as="sourcePoint" />
            <mxPoint x="565.9999999999999" y="-1003.96" as="targetPoint" />
          </mxGeometry>
        </mxCell>
        <mxCell id="z4wqVW5kkElJdBJ2dBvV-15" value="" style="endArrow=classic;html=1;rounded=0;fontSize=30;entryX=0.4;entryY=0;entryDx=0;entryDy=0;entryPerimeter=0;" edge="1" parent="1">
          <mxGeometry width="50" height="50" relative="1" as="geometry">
            <mxPoint x="580" y="-1100" as="sourcePoint" />
            <mxPoint x="784" y="-1040" as="targetPoint" />
          </mxGeometry>
        </mxCell>
        <mxCell id="z4wqVW5kkElJdBJ2dBvV-16" value="Text" style="text;html=1;strokeColor=none;fillColor=none;align=center;verticalAlign=middle;whiteSpace=wrap;rounded=0;fontSize=30;" vertex="1" parent="1">
          <mxGeometry x="566" y="-1190" width="60" height="30" as="geometry" />
        </mxCell>
      </root>
    </mxGraphModel>
  </diagram>
</mxfile>
